<?xml version="1.0" encoding="utf-8"?>
<!-- Generator: Adobe Illustrator 19.0.0, SVG Export Plug-In . SVG Version: 6.00 Build 0)  -->
<svg version="1.1" id="Layer_1" xmlns="http://www.w3.org/2000/svg" xmlns:xlink="http://www.w3.org/1999/xlink" x="0px" y="0px"
	 viewBox="-297 389 16 16" style="enable-background:new -297 389 16 16;" xml:space="preserve">
<style type="text/css">
	.st0{fill:#FFFFFF;}
</style>
<path class="st0" d="M-295.4,393.6c0.2-0.2,0.5-0.2,0.7,0c0,0,0,0,0,0l5.6,5.6l5.6-5.6c0.2-0.2,0.5-0.2,0.7,0c0.2,0.2,0.2,0.5,0,0.7
	l-6,6c-0.2,0.2-0.5,0.2-0.7,0c0,0,0,0,0,0l-6-6C-295.5,394.2-295.5,393.8-295.4,393.6C-295.4,393.6-295.4,393.6-295.4,393.6z"/>
</svg>
